PathFileType  4	(X/Y/Z) C:\Users\antoi\Documents\MyRepositories\mobilecap\ResultsAnalysis
DataRate	CameraRate	NumFrames	NumMarkers	Units	OrigDataRate	OrigDataStartFrame	OrigNumFrames
100.0	100.0	4	51	mm	100.0	1	197
Frame#	Time	r_knee			r_shank_antsup			r_ankle			r_calc			r_5meta			r_toe			L_knee			L_shank_antsup			L_ankle			L_calc			L_5meta			L_toe			r_sh2			r_sh3			r_sh4			L_sh2			L_sh3			r_thigh1			r_thigh2			r_thigh3			r_thigh4			r_thigh5			L_thigh1			L_thigh2			L_thigh3			L_thigh4			r.ASIS			r.PSIS			L.ASIS			L.PSIS			C7			R_Shoulder			L_Shoulder			R_Sternum			L_Sternum			R_humerus			R_elbow_med			R_elbow_lat			R_forearm			R_wrist_radius			R_wrist_ulna			L_humerus			L_elbow_med			L_elbow_lat			L_forearm			L_wrist_radius			L_wrist_ulna			R_HJC			L_HJC			R_HJC_reg			L_HJC_reg			
		X1	Y1	Z1	X2	Y2	Z2	X3	Y3	Z3	X4	Y4	Z4	X5	Y5	Z5	X6	Y6	Z6	X7	Y7	Z7	X8	Y8	Z8	X9	Y9	Z9	X10	Y10	Z10	X11	Y11	Z11	X12	Y12	Z12	X13	Y13	Z13	X14	Y14	Z14	X15	Y15	Z15	X16	Y16	Z16	X17	Y17	Z17	X18	Y18	Z18	X19	Y19	Z19	X20	Y20	Z20	X21	Y21	Z21	X22	Y22	Z22	X23	Y23	Z23	X24	Y24	Z24	X25	Y25	Z25	X26	Y26	Z26	X27	Y27	Z27	X28	Y28	Z28	X29	Y29	Z29	X30	Y30	Z30	X31	Y31	Z31	X32	Y32	Z32	X33	Y33	Z33	X34	Y34	Z34	X35	Y35	Z35	X36	Y36	Z36	X37	Y37	Z37	X38	Y38	Z38	X39	Y39	Z39	X40	Y40	Z40	X41	Y41	Z41	X42	Y42	Z42	X43	Y43	Z43	X44	Y44	Z44	X45	Y45	Z45	X46	Y46	Z46	X47	Y47	Z47	X48	Y48	Z48	X49	Y49	Z49	X50	Y50	Z50	X51	Y51	Z51	

1	0.00000000	-441.20744	484.67244	-39.93553	-435.38906	410.37857	-41.66227	-692.70084	206.28974	-105.70958	-741.83465	222.10393	-162.15808	-653.00268	95.07266	-76.96208	-592.49579	90.39263	-117.49321	-512.33827	468.57826	-338.56287	-474.17982	386.13489	-323.69138	-547.71911	82.64020	-307.20773	-602.24323	51.78730	-259.65119	-442.97827	41.58037	-329.52231	-393.05543	65.87208	-275.71960	-520.59115	336.88669	-50.89792	-485.84942	465.82796	-25.79667	-578.83571	396.90638	-41.88061	-554.36170	403.97090	-362.88856	-567.89068	282.42930	-364.47379	-473.21940	728.58494	-20.34497	-435.19755	622.33527	-17.62991	-487.65110	579.11429	-28.64375	-574.38938	687.86354	-49.85984	-526.59285	579.53077	-65.04894	-474.42422	746.09055	-402.95784	-466.36708	609.43278	-373.62690	-582.45229	731.81145	-410.09958	-576.81587	603.57347	-353.58581	-456.27613	925.24650	-105.37252	-662.06527	960.43959	-189.29106	-439.65823	930.20918	-327.48718	-656.76676	963.31118	-270.17237	-550.85669	1375.00379	-328.27976	-505.03872	1392.45706	-178.80152	-504.34846	1300.50967	-445.37389	-431.78024	1316.04315	-278.87375	-430.43276	1303.86627	-316.93322	-500.96155	1302.95140	-82.70317	-628.61364	1124.22196	-31.58035	-584.97387	1140.20341	16.29786	-529.67320	1063.90790	36.16397	-503.81025	923.09017	59.14412	-529.17374	927.27132	89.62906	-493.66133	1186.89772	-489.30995	-536.07019	968.10316	-433.97584	-507.54792	980.33938	-493.74490	-432.09797	907.75812	-492.07336	-361.34375	803.12265	-461.21305	-395.95757	785.09672	-481.39478	-539.74952	839.71639	-118.65972	-527.19246	847.42162	-325.64246	-525.52354	857.49472	-142.95907	-515.91741	862.70084	-289.59471	
2	0.01000000	-424.37863	486.85132	-41.72565	-415.76761	412.54997	-43.36946	-664.70134	197.51229	-105.46732	-715.26195	211.14238	-161.74239	-618.98633	88.60737	-77.17244	-558.90306	86.71927	-117.82215	-509.02899	467.92571	-338.67103	-471.94549	384.98175	-323.96061	-547.30237	82.59887	-307.04970	-602.02039	52.20730	-259.48676	-442.39927	40.98052	-329.34351	-392.70359	64.96468	-275.66831	-498.09415	335.50080	-51.92547	-468.85261	466.25487	-27.10865	-558.62029	393.41790	-42.28678	-552.01716	403.65915	-362.86165	-566.35800	282.22626	-364.26946	-461.16079	729.93835	-21.16130	-421.31288	624.59362	-19.15152	-473.13375	580.57966	-29.50843	-562.66843	688.21763	-49.99305	-513.14274	580.70160	-65.45024	-468.34217	744.79013	-403.72660	-461.38608	608.05130	-373.94078	-577.61995	732.51936	-410.15151	-573.26069	604.35808	-353.40347	-447.07599	925.32665	-107.76054	-653.94073	961.15499	-189.53446	-431.93407	928.78386	-329.36754	-649.03555	963.89887	-270.49285	-541.93715	1375.75762	-329.38999	-495.68284	1392.27258	-179.86499	-495.01858	1301.01804	-446.58563	-422.84171	1315.67212	-280.32306	-421.24157	1303.64957	-318.12234	-491.57414	1302.58183	-83.98022	-620.06346	1124.82449	-32.45952	-575.74131	1140.32340	15.40248	-520.45518	1063.85533	35.45572	-495.15914	922.93592	58.97199	-520.37558	927.49829	89.42791	-483.96907	1187.20419	-490.29899	-527.09390	969.16210	-434.64736	-498.56525	981.30427	-494.52730	-421.70596	908.34079	-492.09796	-351.25723	804.30684	-460.79429	-385.07190	785.98302	-480.86857	-531.28613	840.18974	-119.42268	-520.45814	846.71173	-326.52572	-517.03285	857.39473	-144.81292	-508.16520	862.35372	-291.08855	
3	0.02000000	-407.72931	488.93417	-43.58618	-396.30534	414.68146	-45.16391	-636.47876	188.72667	-105.16089	-688.47205	200.13324	-161.23208	-584.81489	82.30373	-77.26632	-525.20594	83.18441	-118.06423	-505.67497	467.25585	-338.76690	-469.66052	383.81473	-324.21479	-546.87172	82.56663	-306.88846	-601.82305	52.63555	-259.34004	-441.80809	40.38899	-329.16976	-392.34027	64.03465	-275.61317	-475.61806	334.10707	-52.97650	-451.85974	466.50733	-28.44443	-538.38034	389.79912	-42.75330	-549.60492	403.34926	-362.83275	-564.76909	282.02541	-364.07149	-449.04260	731.23760	-22.04666	-407.43142	626.78192	-20.77648	-458.67863	581.99981	-30.39083	-550.92182	688.56209	-50.09245	-499.75141	581.85851	-65.85431	-462.16856	743.46805	-404.43803	-456.36373	606.67017	-374.23803	-572.70335	733.21836	-410.20786	-569.74434	605.15631	-353.27131	-437.87933	925.36189	-110.07365	-645.79375	961.82954	-189.74356	-424.18390	927.35959	-331.20345	-641.27385	964.45693	-270.77087	-533.01766	1376.47820	-330.44763	-486.28051	1392.02267	-180.87319	-485.68614	1301.49174	-447.75517	-413.85523	1315.24105	-281.72409	-412.12208	1303.34031	-319.28207	-482.16574	1302.15376	-85.22783	-611.47130	1125.35566	-33.33838	-566.47754	1140.36604	14.51977	-511.22402	1063.73564	34.75204	-486.54185	922.68374	58.82643	-511.55139	927.64640	89.21695	-474.29868	1187.48590	-491.26023	-518.18169	970.19072	-435.33900	-489.61311	982.22055	-495.31031	-411.38025	908.88811	-492.13516	-341.18872	805.42150	-460.41519	-374.17382	786.78938	-480.38969	-522.80710	840.61699	-120.15463	-513.68293	845.99655	-327.36927	-508.53544	857.24759	-146.61242	-500.38875	861.98118	-292.55060	
4	0.03000000	-391.42538	490.85957	-45.58438	-377.15745	416.76781	-47.12460	-607.87259	179.96140	-104.73734	-661.28424	189.04972	-160.54396	-550.37598	76.33542	-77.15615	-491.34601	79.94389	-118.16374	-502.26795	466.57824	-338.84886	-467.29586	382.65593	-324.44342	-546.41816	82.55693	-306.72059	-601.66387	53.07811	-259.22050	-441.21190	39.82775	-329.00746	-391.96768	63.08593	-275.55519	-453.20146	332.73011	-54.06944	-434.91045	466.47087	-29.83149	-518.11681	385.96847	-43.31995	-547.08755	403.06254	-362.80319	-563.09632	281.84986	-363.88598	-436.84531	732.46408	-23.05164	-393.57889	628.86634	-22.58589	-444.35780	583.35309	-31.31665	-539.13364	688.88929	-50.12994	-486.46782	582.98446	-66.26868	-455.87499	742.13744	-405.06286	-451.29943	605.31481	-374.51541	-567.63363	733.90017	-410.27597	-566.25465	605.97947	-353.22499	-428.69358	925.33789	-112.23869	-637.60209	962.43835	-189.89245	-416.40009	925.97059	-332.95898	-633.45676	964.96501	-270.97561	-524.09495	1377.13786	-331.40668	-476.81641	1391.67219	-181.78162	-476.36848	1301.91749	-448.84792	-404.79904	1314.72787	-283.03336	-403.11958	1302.89516	-320.38384	-472.73466	1301.64027	-86.41529	-602.80253	1125.75382	-34.21628	-557.17670	1140.28153	13.66030	-501.99237	1063.51479	34.06460	-477.97742	922.28124	58.72155	-502.69413	927.66798	88.99054	-464.70117	1187.73944	-492.17690	-509.38463	971.16051	-436.06651	-480.72726	983.05636	-496.09648	-401.20546	909.39030	-492.20401	-331.16702	806.42997	-460.11284	-363.28816	787.47220	-480.00564	-514.29568	840.97615	-120.83112	-506.82699	845.29274	-328.14181	-500.02607	857.04021	-148.29592	-492.57542	861.57962	-293.94566	
